<?xml version="1.0" encoding="UTF-8" standalone="no"?>
<!-- Created with Inkscape (http://www.inkscape.org/) -->

<svg
   width="109.35799mm"
   height="46.759548mm"
   viewBox="0 0 109.35799 46.759548"
   version="1.1"
   id="svg1"
   xml:space="preserve"
   xmlns="http://www.w3.org/2000/svg"
   xmlns:svg="http://www.w3.org/2000/svg"><defs
     id="defs1" /><g
     id="layer1"
     transform="translate(565.97015,-2010.7476)"><path
       id="path1"
       style="fill:#000000"
       d="m -510.84398,2010.7476 c -6.33748,-0.024 -11.71433,4.513 -12.69328,10.6913 -0.005,0.033 -0.0105,0.066 -0.0155,0.099 -0.0158,0.1049 -0.0177,0.1883 -0.0315,0.292 -0.14952,1.0071 -0.23282,2.0949 -0.23461,3.3254 l -0.004,2.7109 c 0,0 0.0277,0.8481 -0.047,1.217 -0.14675,0.7246 -2.01353,1.1612 -5.01313,1.1612 h -2.81069 l -2.33009,-2.3813 -2.33009,-2.3812 h -3.03082 c -2.69831,0 -3.02407,-0.026 -3.53053,-0.5421 -0.32152,-0.5326 -0.89821,-0.8587 -1.52032,-0.8589 -0.61106,0 -1.17924,0.3146 -1.5043,0.832 -0.1991,0.2779 -0.30579,0.6146 -0.27182,0.9767 0.0172,0.9687 0.80728,1.745 1.77612,1.7451 0.64805,-3e-4 1.24454,-0.3534 1.55649,-0.9214 0.43324,-0.415 0.87012,-0.4377 3.15588,-0.4377 h 2.79001 l 2.34766,2.3813 2.34766,2.3812 h 2.76727 2.76728 l -0.46922,0.7938 -0.46871,0.7937 h -3.0794 -3.07991 l -1.36116,-1.4391 c -0.807,-0.8533 -1.19178,-1.388 -1.31517,-1.8676 0.0214,-0.1109 0.0321,-0.2235 0.032,-0.3364 2e-5,-0.981 -0.79511,-1.7765 -1.77612,-1.7767 -0.98121,0 -1.77665,0.7955 -1.77663,1.7767 -7e-5,0.9812 0.79538,1.7766 1.77663,1.7766 0.21972,-10e-5 0.43751,-0.041 0.64234,-0.1204 0.60387,-0.046 0.8799,0.1866 1.95802,1.3358 l 1.35548,1.4449 h 3.23649 3.23701 v 0.7937 0.7938 h -3.51193 -3.51193 l -2.10426,-2.1167 -2.10427,-2.1172 h -4.01061 c -2.3528,0 -3.32645,5e-4 -3.81785,-0.1374 -0.2481,-0.8792 -1.05017,-1.4864 -1.9637,-1.4867 -1.12738,0 -2.04131,0.9138 -2.04122,2.0412 -3e-5,1.1273 0.91388,2.0412 2.04122,2.0412 0.81296,-3e-4 1.54821,-0.4831 1.87172,-1.2289 0.50884,-0.1506 1.46785,-0.1705 3.7884,-0.1705 h 3.86849 l 1.97094,1.9844 1.97094,1.9843 h 3.77703 3.77703 l 5.2e-4,0.7276 v 0.7282 l -4.31963,-0.078 -4.32015,-0.078 -1.55908,-1.5756 -1.55908,-1.5756 h -2.70474 c -1.51769,0 -2.77625,0.1162 -2.86805,0.2646 -0.0985,0.1594 -1.92767,0.2645 -4.59972,0.2645 -2.92896,0 -3.92718,0 -4.44985,-0.1994 -0.26751,-0.85 -1.05553,-1.4282 -1.94665,-1.4284 -1.12734,0 -2.04125,0.914 -2.04122,2.0413 -9e-5,1.1274 0.91384,2.0412 2.04122,2.0412 0.8203,-10e-5 1.56083,-0.4913 1.87998,-1.247 0.51287,-0.1313 1.46769,-0.1493 3.63182,-0.1493 h 3.79099 l -0.99529,1.1906 -0.99529,1.1906 h -6.59443 -6.54327 c -0.2183,-0.92 -1.03987,-1.5696 -1.98541,-1.5699 -1.12754,0 -2.04153,0.9142 -2.04122,2.0417 -3e-5,1.1273 0.91388,2.0413 2.04122,2.0413 0.90135,-10e-5 1.69595,-0.5913 1.95492,-1.4547 h 6.57014 6.59133 l 1.97094,-1.9844 1.97094,-1.9844 h 2.52853 2.52853 l 1.57096,1.5875 1.57096,1.5875 h 4.44004 4.44004 v 0.6615 0.6614 h -4.97075 -4.97128 l -1.30276,-1.3229 -1.30328,-1.3229 h -2.14767 -2.14767 l -3.37706,3.4396 -3.37705,3.4396 h -1.41852 c -0.8862,0 -1.31655,-0.07 -1.71153,-0.3447 -0.32494,-0.6114 -0.96073,-0.9936 -1.65312,-0.9938 -1.03415,-10e-5 -1.87258,0.8382 -1.87276,1.8723 -4e-5,1.0343 0.83846,1.8728 1.87276,1.8727 0.72889,-3e-4 1.39139,-0.4235 1.69808,-1.0847 0.36024,-0.2176 0.80971,-0.263 1.77664,-0.263 h 1.62471 l 3.47627,-3.5719 3.47627,-3.5718 h 1.65727 1.65778 l 1.10742,1.3224 1.10743,1.3234 h 5.39967 5.39915 v 0.6615 0.6614 l -4.29948,0.02 c -6.25706,0.029 -7.58934,0.01 -8.29251,-0.3545 -0.34953,-0.459 -0.89329,-0.7279 -1.4702,-0.7281 -1.02105,10e-5 -1.84867,0.8279 -1.84846,1.849 1.2e-4,1.0208 0.82764,1.8479 1.84846,1.848 0.75497,-2e-4 1.43395,-0.4591 1.71514,-1.1597 l 0.38861,-0.416 h 5.97896 5.97948 v 0.6615 0.6609 l -4.96094,6e-4 h -4.96093 l -1.13947,1.3234 -1.13895,1.3224 h -1.99781 c -1.2733,0 -1.76631,-0.03 -2.11046,-0.2548 -0.26337,-0.7346 -0.95961,-1.2246 -1.73995,-1.2247 -1.02101,10e-5 -1.84862,0.8275 -1.84846,1.8485 6e-5,1.0209 0.8276,1.8488 1.84846,1.8489 0.036,0 0.072,-10e-4 0.108,0 0.49483,-0.01 0.98155,-0.2028 1.28933,-0.5829 0.4062,-0.5013 0.72874,-0.5736 2.58382,-0.5736 h 2.12029 l 1.24333,-1.4552 1.24282,-1.4552 h 4.73046 4.73046 v 0.661 0.6619 h -3.23133 -3.23081 l -1.14153,1.1199 c -0.65697,0.6448 -1.17386,0.9962 -1.65364,1.1157 -0.0803,-0.011 -0.16132,-0.016 -0.24237,-0.016 -1.02105,10e-5 -1.84867,0.8279 -1.84846,1.849 4e-5,0.4357 0.15396,0.8573 0.4346,1.1906 l 5.1e-4,6e-4 0.10077,0.2961 h -5.18573 c -4.41074,0 -5.20861,-0.06 -5.34076,-0.4041 -0.11502,-0.2998 -0.32518,-0.5271 -0.58652,-0.6822 -0.3216,-0.2444 -0.71438,-0.3767 -1.11828,-0.3767 -1.02082,1e-4 -1.84835,0.8272 -1.84847,1.848 -2.1e-4,1.0211 0.82741,1.8494 1.84847,1.8495 0.66436,-2e-4 1.27751,-0.357 1.6061,-0.9344 0.48642,-0.4794 0.8595,-0.5059 3.43803,-0.5059 2.73595,0 2.95799,0.037 2.76624,0.463 -0.003,0.01 -0.006,0.014 -0.009,0.022 -0.24662,0.3224 -0.38028,0.717 -0.38034,1.1229 6e-5,1.0211 0.82792,1.8486 1.84898,1.8484 0.70917,-3e-4 1.35566,-0.4062 1.66398,-1.0448 0.46006,-0.2792 1.13326,-0.2946 3.49075,-0.2946 h 3.26336 l 1.24282,-1.4552 c 1.22352,-1.4323 1.26638,-1.4552 2.67839,-1.4552 h 1.43454 v 0.9343 c 0,1.0532 0.58792,2.6282 1.26659,3.3925 0.24911,0.2805 0.92944,0.7291 1.51153,0.9964 v 0.01 c 0.98183,0.4508 2.01994,0.4819 14.36398,0.4919 12.54112,0.01 13.36227,-0.023 14.2875,-0.495 0.53991,-0.2756 1.2017,-0.7439 1.4702,-1.0408 0.62528,-0.6914 1.20466,-2.3167 1.21956,-3.4194 0.0107,-0.7929 0.079,-0.8599 0.88057,-0.8599 0.70267,0 1.14418,0.2789 2.30632,1.4557 l 1.43712,1.4552 h 3.20394 c 2.02861,0 2.7858,0.011 3.23753,0.2011 a 1.912664,1.912664 0 0 0 1.76785,1.1828 1.912664,1.912664 0 0 0 1.91203,-1.9125 1.912664,1.912664 0 0 0 -0.54416,-1.3364 c 0.0245,-0.2305 0.60044,-0.2348 2.85306,-0.2155 2.3688,0.021 2.92311,0.054 3.36414,0.4078 a 1.8250368,1.8250368 0 0 0 1.67586,1.1017 1.8250368,1.8250368 0 0 0 1.8247,-1.8252 1.8250368,1.8250368 0 0 0 -1.8247,-1.8252 1.8250368,1.8250368 0 0 0 -0.0672,0 c -0.48593,0 -0.97515,0.1961 -1.33067,0.648 l -0.51986,0.6615 h -5.20537 -5.20536 l 0.20257,-0.5953 c 0.0152,-0.045 0.0294,-0.089 0.0424,-0.1333 a 1.8250368,1.8250368 0 0 0 0.22014,-0.8698 1.8250368,1.8250368 0 0 0 -1.55494,-1.8055 c -0.12352,-0.023 -0.25343,-0.036 -0.38912,-0.036 -0.44174,0 -0.97139,-0.3524 -1.59009,-1.0583 l -0.92759,-1.0584 h -3.01119 -3.01066 v -0.6614 -0.6615 h 4.30826 4.30878 l 1.43712,1.4552 1.43712,1.4552 h 2.06809 c 1.19588,0 1.80631,0.058 2.06758,0.215 a 1.8250368,1.8250368 0 0 0 1.44642,0.9938 c 0.29749,0.087 0.49577,0.065 0.76326,-0.086 a 1.8250368,1.8250368 0 0 0 1.24385,-1.7302 1.8250368,1.8250368 0 0 0 -1.82417,-1.8252 1.8250368,1.8250368 0 0 0 -1.67897,1.1085 c -0.37812,0.2296 -0.87051,0.2661 -2.07378,0.2661 h -1.91357 l -1.18391,-1.3167 -1.18391,-1.3167 -4.54494,-0.072 c -4.48701,-0.071 -4.54619,-0.081 -4.62969,-0.6677 l -0.0842,-0.5953 h 5.60069 5.60069 l 0.19017,0.2036 a 2.0411426,2.0411426 0 0 0 1.98696,1.574 2.0411426,2.0411426 0 0 0 2.0407,-2.0412 2.0411426,2.0411426 0 0 0 -2.0407,-2.0412 2.0411426,2.0411426 0 0 0 -1.92392,1.3596 c -0.8875,0.2109 -3.22918,0.1973 -7.81709,-0.023 -3.48286,-0.167 -3.62359,-0.1959 -3.54759,-0.7276 0.0774,-0.5423 0.17888,-0.5522 4.84157,-0.4682 l 4.7625,0.085 1.39423,-1.4217 1.39423,-1.4216 1.60662,0.041 1.60662,0.041 3.48506,3.4778 3.48506,3.4783 h 1.54564 c 0.71268,0 1.15898,0.038 1.52807,0.169 a 2.1503945,2.1503945 0 0 0 1.98644,1.3265 2.1503945,2.1503945 0 0 0 2.14974,-2.1502 2.1503945,2.1503945 0 0 0 -2.14974,-2.1508 2.1503945,2.1503945 0 0 0 -2.08256,1.6134 c -0.30252,0.1035 -0.69051,0.1333 -1.29914,0.1333 h -1.42886 l -3.43183,-3.4396 -3.43183,-3.4391 h -1.99833 -1.99781 l -1.30328,1.3229 -1.30276,1.3224 h -4.70669 -4.70617 v -0.6614 -0.661 h 4.17545 4.17546 l 1.57096,-1.5875 1.57096,-1.5875 h 2.39624 2.39624 l 1.97094,1.9844 1.97093,1.9839 h 6.72363 6.62905 a 1.9053103,1.9053103 0 0 0 1.82779,1.3679 1.9053103,1.9053103 0 0 0 1.9048,-1.9054 1.9053103,1.9053103 0 0 0 -1.9048,-1.9053 1.9053103,1.9053103 0 0 0 -1.83244,1.3844 h -6.54482 -6.54741 l -1.1684,-1.1906 -1.16841,-1.1906 h 3.85042 c 2.34231,0 3.29113,0.021 3.79305,0.1772 a 2.0411426,2.0411426 0 0 0 1.87533,1.2341 2.0411426,2.0411426 0 0 0 2.04071,-2.0412 2.0411426,2.0411426 0 0 0 -2.04071,-2.0413 2.0411426,2.0411426 0 0 0 -1.99574,1.6129 h -4.25297 c -2.68251,0 -4.51672,-0.1051 -4.61522,-0.2646 -0.0918,-0.1484 -1.35035,-0.2646 -2.86804,-0.2646 h -2.70475 l -1.57096,1.5875 -1.57097,1.5875 h -4.06176 c -3.93063,0 -4.05882,-0.017 -3.97702,-0.5359 0.079,-0.5006 0.31242,-0.5431 3.52433,-0.6341 l 3.43958,-0.098 1.89911,-2.0118 1.89963,-2.0118 h 3.92896 c 2.92706,0 3.71617,0.03 4.13204,0.3008 a 1.7864366,1.7864366 0 0 0 1.52601,0.8578 1.7864366,1.7864366 0 0 0 1.78594,-1.7864 1.7864366,1.7864366 0 0 0 -1.78594,-1.7865 1.7864366,1.7864366 0 0 0 -1.62419,1.0423 c -0.40723,0.3076 -1.11754,0.3137 -4.13308,0.3137 h -3.93671 l -2.10427,2.1167 -2.10426,2.1166 h -3.24735 -3.24734 v -0.7937 -0.7938 h 2.85357 2.85305 l 1.43196,-1.45 c 0.95913,-0.971 1.31154,-1.2895 1.76992,-1.3384 a 1.9222842,1.9222842 0 0 0 0.89348,0.2201 1.9222842,1.9222842 0 0 0 1.92133,-1.9224 1.9222842,1.9222842 0 0 0 -1.92133,-1.9223 1.9222842,1.9222842 0 0 0 -1.92236,1.9223 1.9222842,1.9222842 0 0 0 0.0708,0.5173 c -0.13265,0.3947 -0.54982,0.9286 -1.32653,1.7152 l -1.44642,1.4645 h -2.67839 c -2.61356,0 -2.68627,-0.016 -2.98587,-0.6739 -0.16888,-0.3706 -0.30695,-0.7277 -0.30695,-0.7937 10e-6,-2e-4 10e-6,-8e-4 0,0 v -5e-4 h 5.1e-4 5.2e-4 c 0.0397,-0.064 1.06834,-0.1168 2.31975,-0.1168 h 2.32028 l 2.37039,-2.3812 2.3704,-2.3813 h 2.67116 c 2.16602,0 2.61183,0.03 3.06906,0.4388 a 1.9222842,1.9222842 0 0 0 1.65416,0.9431 1.9222842,1.9222842 0 0 0 1.92185,-1.9219 1.9222842,1.9222842 0 0 0 -1.92185,-1.9224 1.9222842,1.9222842 0 0 0 -1.86448,1.4547 c -0.40056,0.2021 -1.09825,0.214 -3.04891,0.214 h -3.01015 l -2.3704,2.3807 -2.3704,2.3818 -2.651,-0.01 c -1.79825,-0.01 -2.86435,-0.131 -3.31298,-0.3875 -0.1689,-0.097 -0.48273,-0.1697 -1.09916,-0.2248 -0.0101,-0.3059 -0.0403,-0.6529 -0.0739,-0.969 h 0.0238 5.76812 l 2.18798,-2.176 c 1.49429,-1.4866 2.04258,-1.9704 2.5647,-2.0842 a 1.9222842,1.9222842 0 0 0 0.63097,0.1065 1.9222842,1.9222842 0 0 0 1.14257,-0.3767 c 0.0313,-0.018 0.0602,-0.037 0.0863,-0.056 0.0793,-0.058 0.14982,-0.1318 0.21135,-0.2171 a 1.9222842,1.9222842 0 0 0 0.48163,-1.2723 1.9222842,1.9222842 0 0 0 -1.92185,-1.9223 1.9222842,1.9222842 0 0 0 -1.92236,1.9223 1.9222842,1.9222842 0 0 0 0.17725,0.8062 c -0.1639,0.4407 -0.69579,1.0225 -2.00453,2.3244 l -2.18333,2.1715 -5.34179,-0.032 c -0.0156,-0.1115 -0.0253,-0.1778 -0.0253,-0.1778 l -0.004,-2.7119 c -8.3e-4,-0.5648 -0.0685,-1.0225 -0.0992,-1.5369 -0.004,-0.1202 -0.0154,-0.2516 -0.0258,-0.3943 -0.28153,-3.6504 -1.34269,-6.1603 -3.68092,-8.4532 -2.58546,-2.5354 -5.65196,-3.8172 -9.16533,-3.8303 z m -4.10155,4.9651 h 7.62279 c 2.73435,0 4.93561,2.2012 4.93561,4.9356 v 0.6335 0.4103 7.9923 h -17.49402 v -7.9923 -0.4103 -0.6335 c 0,-2.7344 2.20127,-4.9356 4.93562,-4.9356 z m 28.37759,6.1562 a 0.72386048,0.72386048 0 0 1 0.70849,0.5777 c 0.003,0.04 0.004,0.081 0.004,0.1251 0,0.071 -0.004,0.1369 -0.0109,0.1963 a 0.72386048,0.72386048 0 0 1 -0.70177,0.5483 0.72386048,0.72386048 0 0 1 -0.72398,-0.7203 0.72386048,0.72386048 0 0 1 0.72398,-0.7198 z m 8.62583,3.1584 a 0.72386048,0.72386048 0 0 1 0.72347,0.7235 0.72386048,0.72386048 0 0 1 -0.72347,0.724 0.72386048,0.72386048 0 0 1 -0.72398,-0.724 0.72386048,0.72386048 0 0 1 0.18138,-0.4795 c 0.0934,-0.09 0.20759,-0.1643 0.33796,-0.2145 a 0.72386048,0.72386048 0 0 1 0.20464,-0.03 z m -66.49361,0.1618 c 0.36924,2e-4 0.66853,0.2995 0.66869,0.6687 1.2e-4,0.3694 -0.29925,0.669 -0.66869,0.6692 -0.36964,10e-5 -0.66933,-0.2996 -0.66921,-0.6692 1.6e-4,-0.3694 0.29976,-0.6688 0.66921,-0.6687 z m 60.31311,3.0298 a 0.72386048,0.72386048 0 0 1 0.35967,0.096 c 0.17715,0.1399 0.31716,0.3499 0.36328,0.6098 a 0.72386048,0.72386048 0 0 1 5.2e-4,0.017 0.72386048,0.72386048 0 0 1 -0.72347,0.724 0.72386048,0.72386048 0 0 1 -0.7245,-0.724 0.72386048,0.72386048 0 0 1 0.7245,-0.7234 z m -54.09851,0.094 c 0.36925,2e-4 0.66854,0.2995 0.6687,0.6687 1.2e-4,0.3694 -0.29926,0.669 -0.6687,0.6692 -0.36964,1e-4 -0.66933,-0.2996 -0.66921,-0.6692 1.6e-4,-0.3694 0.29976,-0.6688 0.66921,-0.6687 z m -10.59521,2.1079 c 0.42417,4e-4 0.76784,0.3443 0.76791,0.7685 1.6e-4,0.4243 -0.34358,0.7685 -0.76791,0.7689 -0.42474,2e-4 -0.76911,-0.3442 -0.76895,-0.7689 7e-5,-0.4246 0.34437,-0.7687 0.76895,-0.7685 z m 75.28894,0.1241 a 0.67270539,0.67270539 0 0 1 0.67231,0.6723 0.67270539,0.67270539 0 0 1 -0.67231,0.6728 0.67270539,0.67270539 0 0 1 -0.67283,-0.6728 0.67270539,0.67270539 0 0 1 0.67283,-0.6723 z m -82.59082,3.577 c 0.42433,10e-5 0.7683,0.3441 0.76842,0.7684 2.1e-4,0.4246 -0.34385,0.7689 -0.76842,0.769 -0.42477,2e-4 -0.76916,-0.3442 -0.76895,-0.769 1.2e-4,-0.4245 0.34441,-0.7686 0.76895,-0.7684 z m 89.85859,0.029 a 0.76861815,0.76861815 0 0 1 0.76792,0.768 0.76861815,0.76861815 0 0 1 -0.21756,0.5353 c -0.005,0.01 -0.0103,0.011 -0.0155,0.016 a 0.76861815,0.76861815 0 0 1 -0.53485,0.2181 0.76861815,0.76861815 0 0 1 -0.76894,-0.7689 0.76861815,0.76861815 0 0 1 0.76894,-0.768 z m -44.02883,3.4484 c 1.93613,10e-5 3.50563,1.5696 3.50573,3.5057 1.3e-4,1.3953 -0.82709,2.6578 -2.10634,3.2148 -0.0384,0.3082 0.045,0.9081 0.25839,2.033 0.23005,1.2127 0.41806,2.3702 0.41806,2.5724 0,0.2807 -0.46699,0.3675 -1.98438,0.3675 -1.0914,0 -1.9822,-0.03 -1.9792,-0.066 0.003,-0.036 0.17723,-1.0186 0.38757,-2.1828 0.26992,-1.4939 0.39571,-2.2184 0.33796,-2.6313 -1.40426,-0.4933 -2.34402,-1.8195 -2.34404,-3.3079 1e-4,-1.9363 1.56992,-3.5058 3.50625,-3.5057 z m -53.58226,0.052 c 0.0768,0 0.14937,0.01 0.21704,0.019 0.29692,0.1141 0.49291,0.3992 0.49299,0.7173 -1.2e-4,0.4243 -0.34409,0.7683 -0.76843,0.7684 -0.42434,-10e-5 -0.76831,-0.3441 -0.76843,-0.7684 -3e-5,-0.1849 0.0666,-0.3636 0.18759,-0.5033 0.15067,-0.1419 0.37109,-0.2331 0.63924,-0.2331 z m 105.35377,0.082 a 0.71746882,0.71746882 0 0 1 0.70229,0.572 c 0.003,0.044 0.005,0.091 0.005,0.1401 0,0.057 -0.002,0.1094 -0.007,0.1586 a 0.71746882,0.71746882 0 0 1 -0.70074,0.5643 0.71746882,0.71746882 0 0 1 -0.71778,-0.7178 0.71746882,0.71746882 0 0 1 0.71778,-0.7172 z m -22.06583,3.9279 a 0.76861815,0.76861815 0 0 1 0.76843,0.7684 0.76861815,0.76861815 0 0 1 -0.60875,0.7519 c -0.0727,0.011 -0.14721,0.016 -0.22118,0.014 a 0.76861815,0.76861815 0 0 1 -0.70745,-0.7664 0.76861815,0.76861815 0 0 1 0.0522,-0.278 c 0.0897,-0.1611 0.21806,-0.3067 0.36329,-0.4046 a 0.76861815,0.76861815 0 0 1 0.35347,-0.086 z m -61.2712,0.049 c 0.38423,3e-4 0.69556,0.3119 0.69557,0.6961 -10e-6,0.3842 -0.31134,0.6958 -0.69557,0.6961 -0.38464,3e-4 -0.69659,-0.3115 -0.6966,-0.6961 10e-6,-0.3846 0.31196,-0.6964 0.6966,-0.6961 z m 75.61864,1.6345 a 0.80975846,0.80975846 0 0 1 0.80925,0.8098 0.80975846,0.80975846 0 0 1 -0.80925,0.8103 0.80975846,0.80975846 0 0 1 -0.81029,-0.8103 0.80975846,0.80975846 0 0 1 0.81029,-0.8098 z m -89.93714,0.2217 c 0.38904,2e-4 0.70444,0.3154 0.70486,0.7044 8e-5,0.3894 -0.31547,0.7051 -0.70486,0.7053 -0.38959,10e-5 -0.70547,-0.3157 -0.70539,-0.7053 4.2e-4,-0.3892 0.31615,-0.7045 0.70539,-0.7044 z m 10.33218,2.7538 v 6e-4 c 0.3842,3e-4 0.6955,0.3118 0.69557,0.696 -10e-6,0.3842 -0.31134,0.6958 -0.69557,0.6961 -0.38443,0 -0.69607,-0.3117 -0.69608,-0.6961 -3e-5,-0.013 3.4e-4,-0.026 0.001,-0.04 0.047,-0.1862 0.1361,-0.3662 0.26252,-0.5054 0.12302,-0.098 0.27546,-0.1508 0.43253,-0.1509 z m 69.17201,0.1044 a 0.68724081,0.68724081 0 0 1 0.68678,0.6822 c -1.3e-4,0 -4e-4,0 -5.2e-4,0 -0.019,0.1653 -0.0743,0.3114 -0.15245,0.4341 a 0.68724081,0.68724081 0 0 1 -0.53381,0.2552 0.68724081,0.68724081 0 0 1 -0.68782,-0.6878 0.68724081,0.68724081 0 0 1 0.68782,-0.6873 z m -57.31588,0.7519 h 3.09593 3.09645 v 0.6615 c 0,0.6504 -0.0353,0.6614 -2.11666,0.6614 -1.7051,0 -2.11667,0.077 -2.11667,0.3969 0,0.3781 0.73318,0.4793 3.63802,0.5033 0.47391,0 0.59531,0.1556 0.59531,0.7432 0,0.728 -0.0159,0.7379 -1.70429,0.7379 h -1.70377 l -1.11569,1.3229 -1.11518,1.3229 h -3.10162 c -2.43383,0 -3.17178,-0.085 -3.43028,-0.3968 -0.3399,-0.4079 -0.21366,-0.4938 0.61185,-0.4078 0.26387,0.027 0.7657,-0.1374 1.11517,-0.3664 0.20744,-0.1359 0.47801,-0.2571 0.72554,-0.3333 0.0725,0.01 0.14554,0.013 0.21859,0.013 1.02062,-4e-4 1.84783,-0.8278 1.84795,-1.8484 9e-5,-0.2317 -0.0434,-0.4614 -0.12815,-0.677 -0.0484,-0.6335 0.1053,-0.897 0.7431,-1.5151 z m 40.19134,0 h 2.81275 2.81275 l 0.69039,0.9049 c 0.36754,0.4818 0.54335,0.8377 0.57206,1.2066 a 1.8250368,1.8250368 0 0 0 -0.18552,0.802 1.8250368,1.8250368 0 0 0 1.31258,1.7519 c 0.14324,0.062 0.29118,0.097 0.43822,0.097 0.33542,0 0.767,0.1887 0.9586,0.4196 0.23582,0.284 0.66602,0.3891 1.3317,0.3261 0.55994,-0.053 0.79426,-0.055 0.83147,0.061 a 1.912664,1.912664 0 0 0 -0.38292,0.5814 c -0.36316,0.1676 -1.13727,0.1994 -3.07526,0.1994 h -3.10989 l -1.29036,-1.3105 c -1.12504,-1.1422 -1.44617,-1.32 -2.50372,-1.389 -1.09188,-0.071 -1.21285,-0.1439 -1.21285,-0.7313 0,-0.6114 0.0775,-0.6472 1.23868,-0.5762 1.28738,0.079 2.46211,-0.3329 2.19264,-0.7689 -0.0854,-0.1383 -0.89226,-0.2512 -1.79318,-0.2512 -1.57083,0 -1.63814,-0.027 -1.63814,-0.6614 z m 8.52765,2.2262 a 0.68724081,0.68724081 0 0 1 0.68677,0.6873 0.68724081,0.68724081 0 0 1 -0.68677,0.6873 0.68724081,0.68724081 0 0 1 -0.68782,-0.6873 0.68724081,0.68724081 0 0 1 0.68782,-0.6873 z m -52.02629,0.087 v 5e-4 c 0.38423,3e-4 0.69556,0.3119 0.69557,0.6961 -1.1e-4,0.3248 -0.22486,0.6064 -0.54157,0.6785 -0.14201,0.011 -0.28674,-5e-4 -0.41806,-0.035 -0.26128,-0.1071 -0.43195,-0.3615 -0.43202,-0.6439 10e-6,-0.3844 0.31165,-0.6961 0.69608,-0.6961 z m -13.54387,1.8738 c 0.3842,0 0.69574,0.3113 0.69608,0.6955 2.7e-4,0.3846 -0.31145,0.6966 -0.69608,0.6966 -0.38463,0 -0.69635,-0.312 -0.69608,-0.6966 3.4e-4,-0.3842 0.31188,-0.6955 0.69608,-0.6955 z m 79.25769,0.1519 a 0.68724081,0.68724081 0 0 1 0.68678,0.6873 0.68724081,0.68724081 0 0 1 -0.68678,0.6878 0.68724081,0.68724081 0 0 1 -0.68729,-0.6878 0.68724081,0.68724081 0 0 1 0.68729,-0.6873 z m -9.26093,1.835 a 0.720238,0.720238 0 0 1 0.72037,0.7199 0.720238,0.720238 0 0 1 -0.72037,0.7209 0.720238,0.720238 0 0 1 -0.72037,-0.7209 0.720238,0.720238 0 0 1 0.72037,-0.7199 z m -60.72704,0.029 c 0.31118,2e-4 0.5844,0.207 0.66921,0.5064 0.005,0.052 0.008,0.1086 0.008,0.1695 0,0.089 -0.006,0.1685 -0.0171,0.2393 -0.0944,0.2844 -0.36021,0.4766 -0.6599,0.4769 -0.38464,3e-4 -0.69659,-0.3115 -0.6966,-0.6961 7e-5,-0.3846 0.312,-0.6963 0.6966,-0.696 z" /></g></svg>
